<?xml version="1.0" encoding="utf-8"?>
<!-- Generator: Adobe Illustrator 24.0.1, SVG Export Plug-In . SVG Version: 6.00 Build 0)  -->
<svg version="1.1" id="Layer_1" xmlns="http://www.w3.org/2000/svg" xmlns:xlink="http://www.w3.org/1999/xlink" x="0px" y="0px"
	 width="74.9px" height="75.1px" viewBox="0 0 74.9 75.1" style="enable-background:new 0 0 74.9 75.1;" xml:space="preserve">
<style type="text/css">
	.st0{fill:#FFFFFF;}
</style>
<g id="phone-call" transform="translate(0.391 1.761)">
	<g id="Path_7196">
		<path class="st0" d="M61.8,73.3c-0.3,0-0.6,0-0.8,0C50.3,72.1,40,68.4,31,62.6c-8.3-5.3-15.5-12.5-20.8-20.8
			c-5.8-9-9.5-19.3-10.6-30C-0.8,6.8,2.9,2.3,8,1.9c0.3,0,0.5,0,0.8,0h10c0,0,0.1,0,0.1,0c4.5,0,8.4,3.4,9.1,7.9
			c0.4,3,1.1,6,2.2,8.9c1.3,3.3,0.4,7.1-2.1,9.7l-2.9,2.9c4.1,6.7,9.8,12.3,16.5,16.5l2.9-2.9c2.5-2.5,6.3-3.3,9.7-2.1
			c2.8,1.1,5.8,1.8,8.8,2.2c4.6,0.7,8,4.6,7.9,9.3v10c0,2.4-0.9,4.7-2.7,6.5C66.6,72.3,64.3,73.3,61.8,73.3
			C61.8,73.3,61.8,73.3,61.8,73.3z M18.9,6.8C18.8,6.8,18.8,6.8,18.9,6.8l-10.1,0c-0.1,0-0.2,0-0.4,0c-2.3,0.2-4,2.2-3.8,4.5
			c1,9.8,4.5,19.5,9.9,27.8c4.9,7.7,11.6,14.4,19.3,19.3c8.3,5.4,17.9,8.8,27.7,9.9c0.1,0,0.2,0,0.3,0c1.1,0,2.2-0.4,2.9-1.2
			c0.8-0.8,1.2-1.8,1.2-3L66,54c0.1-2.1-1.5-3.9-3.6-4.2c-3.4-0.4-6.7-1.3-9.9-2.5c-1.5-0.6-3.3-0.2-4.4,0.9l-5.6,5.6l-1.7-0.9
			c-8.7-5-16-12.2-21-21l-0.9-1.7l5.6-5.6c1.1-1.1,1.5-2.9,0.9-4.4c-1.2-3.2-2-6.5-2.5-9.9C22.7,8.4,20.9,6.8,18.9,6.8z M56,28
			c-1.1-5.7-5.5-10.1-11.2-11.2l1-4.9c7.7,1.5,13.7,7.5,15.2,15.2L56,28z M69.3,27.8C67.9,14.9,57.9,4.9,45,3.5l0.6-5
			c15.2,1.7,27,13.5,28.7,28.7L69.3,27.8z"/>
	</g>
</g>
</svg>
